<?xml version="1.0" encoding="utf-8"?>
<!-- Generator: Adobe Illustrator 24.0.1, SVG Export Plug-In . SVG Version: 6.00 Build 0)  -->
<svg version="1.1" id="Calque_1" xmlns="http://www.w3.org/2000/svg" xmlns:xlink="http://www.w3.org/1999/xlink" x="0px" y="0px"
	 viewBox="0 0 470 211.8" style="enable-background:new 0 0 470 211.8;" xml:space="preserve">
<style type="text/css">
	.st0{fill:#FFFFFF;}
	.st1{fill:none;stroke:#FFFFFF;}
	.st2{fill:none;stroke:#FFFFFF;stroke-dasharray:4,6;}
	.st3{fill:none;stroke:#FFFFFF;stroke-dasharray:3,3;}
	.st4{fill:none;stroke:#FFFFFF;stroke-dasharray:5,5;}
	.st5{enable-background:new    ;}
</style>
<title>M</title>
<g id="Calque_2_1_">
	<g id="Calque_1-2">
		<g id="M">
			<path class="st0" d="M387.7,36.8h-44.8l-57,94.6L229,36.8h-47.3v134h35V78.9l56.6,91.9h22.9l56.5-91.9v91.9h35V36.8z"/>
			<line class="st1" x1="404.2" y1="37.9" x2="404.2" y2="168.6"/>
			<polygon class="st0" points="402.7,38.4 404.2,35.8 405.7,38.4 			"/>
			<polygon class="st0" points="402.7,168.2 404.2,170.8 405.7,168.2 			"/>
			<line class="st1" x1="65.2" y1="40.7" x2="65.2" y2="76.9"/>
			<polygon class="st0" points="63.2,41.2 65.2,37.8 67.2,41.2 			"/>
			<polygon class="st0" points="63.2,76.3 65.2,79.8 67.2,76.3 			"/>
			<line class="st1" x1="65.2" y1="130.9" x2="65.2" y2="168.6"/>
			<polygon class="st0" points="63.7,131.4 65.2,128.8 66.7,131.4 			"/>
			<polygon class="st0" points="63.7,168.2 65.2,170.8 66.7,168.2 			"/>
			<line class="st1" x1="183.9" y1="19.3" x2="226.6" y2="19.3"/>
			<polygon class="st0" points="184.3,20.8 181.7,19.3 184.3,17.8 			"/>
			<polygon class="st0" points="226.1,20.8 228.7,19.3 226.1,17.8 			"/>
			<line class="st1" x1="354.9" y1="19.3" x2="386.6" y2="19.3"/>
			<polygon class="st0" points="355.3,20.8 352.7,19.3 355.3,17.8 			"/>
			<polygon class="st0" points="386.1,20.8 388.7,19.3 386.1,17.8 			"/>
			<line class="st1" x1="385.6" y1="188.3" x2="183.9" y2="187.3"/>
			<polygon class="st0" points="385.1,186.8 387.7,188.3 385.1,189.8 			"/>
			<polygon class="st0" points="184.3,185.8 181.7,187.3 184.3,188.8 			"/>
			<line class="st2" x1="159.7" y1="37.3" x2="70.7" y2="37.3"/>
			<line class="st2" x1="159.7" y1="81.3" x2="69.7" y2="81.3"/>
			<line class="st2" x1="159.7" y1="171.3" x2="70.7" y2="170.3"/>
			<line class="st3" x1="402.7" y1="170.3" x2="388.7" y2="170.3"/>
			<line class="st3" x1="402.7" y1="36.3" x2="388.7" y2="36.3"/>
			<line class="st3" x1="228.2" y1="34.8" x2="228.2" y2="20.8"/>
			<line class="st3" x1="388.2" y1="34.8" x2="388.2" y2="20.8"/>
			<line class="st3" x1="182.2" y1="34.8" x2="182.2" y2="20.8"/>
			<line class="st3" x1="353.2" y1="35.8" x2="353.2" y2="21.8"/>
			<line class="st3" x1="182.2" y1="185.8" x2="182.2" y2="171.8"/>
			<line class="st3" x1="387.2" y1="185.8" x2="387.2" y2="171.8"/>
			<line class="st2" x1="159.7" y1="130.3" x2="69.7" y2="130.3"/>
			<circle class="st4" cx="341.3" cy="38.7" r="18.5"/>
			<circle class="st4" cx="353.3" cy="97.7" r="18.5"/>
			<circle class="st4" cx="286.3" cy="123.7" r="18.5"/>
			<g class="st5">
				<path class="st0" d="M291.2,21.9c-0.4,0.4-0.8,0.7-1.4,0.9c-0.5,0.2-1.3,0.5-2.2,0.7c-0.8,0.2-1.4,0.4-1.9,0.6
					c-0.5,0.2-0.9,0.4-1.2,0.7s-0.5,0.7-0.6,1.1h7.8v0.6h-8.6v-0.4c0-0.6,0.2-1.2,0.6-1.6s0.9-0.7,1.5-1c0.6-0.2,1.3-0.5,2.2-0.7
					c0.8-0.2,1.4-0.4,1.9-0.6c0.5-0.2,0.9-0.4,1.2-0.7c0.3-0.3,0.5-0.7,0.5-1.2c0-1.2-1-1.8-3.1-1.8c-1.2,0-2.1,0.2-2.7,0.6
					s-0.9,1-0.9,1.8h-0.7c0-1,0.4-1.8,1.1-2.3c0.8-0.5,1.8-0.8,3.3-0.8c1.3,0,2.2,0.2,2.9,0.6c0.7,0.4,1,1,1,1.9
					C291.7,21,291.5,21.5,291.2,21.9z"/>
				<path class="st0" d="M300.3,24h2.1v0.6h-2.1v2h-0.7v-2H293V24l6.6-5.8h0.7V24z M299.6,19.1L294,24h5.6V19.1z"/>
				<path class="st0" d="M306,26.3c-0.7-0.4-1.2-0.9-1.6-1.6c-0.4-0.7-0.5-1.5-0.5-2.3c0-0.9,0.2-1.7,0.5-2.3
					c0.4-0.7,0.9-1.2,1.6-1.5c0.7-0.4,1.5-0.5,2.4-0.5c0.9,0,1.7,0.2,2.4,0.5c0.7,0.4,1.2,0.9,1.6,1.5s0.6,1.4,0.6,2.3
					s-0.2,1.7-0.6,2.3s-0.9,1.2-1.6,1.6c-0.7,0.4-1.5,0.6-2.4,0.6C307.5,26.8,306.7,26.6,306,26.3z M310.4,25.7
					c0.6-0.3,1-0.8,1.3-1.3c0.3-0.6,0.5-1.3,0.5-2s-0.2-1.4-0.5-2c-0.3-0.6-0.8-1-1.3-1.3s-1.3-0.5-2-0.5c-0.8,0-1.4,0.2-2,0.5
					c-0.6,0.3-1,0.7-1.3,1.3c-0.3,0.6-0.5,1.2-0.5,2c0,0.8,0.2,1.5,0.5,2c0.3,0.6,0.8,1,1.3,1.3c0.6,0.3,1.2,0.5,2,0.5
					C309.2,26.2,309.8,26,310.4,25.7z"/>
				<path class="st0" d="M315.8,22.3c-0.4-0.5-0.7-1.1-0.7-1.8c0-0.7,0.2-1.3,0.7-1.8c0.4-0.5,1.2-0.8,2.2-0.8c1,0,1.7,0.3,2.2,0.8
					c0.4,0.5,0.7,1.1,0.7,1.8c0,0.7-0.2,1.3-0.7,1.8c-0.4,0.5-1.2,0.8-2.2,0.8C317,23.1,316.3,22.9,315.8,22.3z M319.6,22
					c0.4-0.3,0.6-0.8,0.6-1.5s-0.2-1.1-0.6-1.4s-0.9-0.5-1.6-0.5c-0.6,0-1.2,0.2-1.6,0.5c-0.4,0.3-0.6,0.8-0.6,1.4s0.2,1.1,0.6,1.5
					c0.4,0.3,0.9,0.5,1.6,0.5C318.7,22.5,319.2,22.3,319.6,22z"/>
			</g>
			<g class="st5">
				<path class="st0" d="M191.5,7.6h2.1v0.6h-2.1v2h-0.7v-2h-6.6V7.6l6.6-5.8h0.7V7.6z M190.8,2.7l-5.6,4.9h5.6V2.7z"/>
				<path class="st0" d="M194,1.8h8.3v0.6c-1.7,0.8-2.9,1.9-3.7,3.1c-0.8,1.3-1.2,2.8-1.2,4.6h-0.7c0-1.6,0.3-3.1,1-4.5
					s1.9-2.4,3.6-3.3H194V1.8z"/>
				<path class="st0" d="M215.8,3.4c0.6,0.3,1.1,0.7,1.5,1.3c0.3,0.6,0.5,1.2,0.5,2c0,0.8-0.2,1.4-0.5,2c-0.3,0.6-0.8,1-1.5,1.3
					c-0.6,0.3-1.4,0.4-2.3,0.4c-1,0-1.8-0.2-2.4-0.5s-1.2-0.8-1.5-1.4v4.5h-0.7V3.2h0.7v1.7c0.3-0.6,0.8-1.1,1.5-1.4
					s1.5-0.5,2.4-0.5C214.4,3,215.1,3.1,215.8,3.4z M216,9c0.7-0.5,1-1.3,1-2.3c0-1-0.3-1.7-1-2.3c-0.7-0.5-1.6-0.8-2.7-0.8
					c-1.1,0-2,0.3-2.7,0.8s-1,1.3-1,2.3c0,0.7,0.2,1.2,0.5,1.7s0.8,0.8,1.3,1s1.2,0.4,2,0.4C214.5,9.8,215.4,9.5,216,9z"/>
				<path class="st0" d="M219.7,10.2h-1.1l4-3.5l-4-3.5h1.1l3.4,3l3.4-3h1.1l-4,3.5l4,3.5h-1.1l-3.4-3L219.7,10.2z"/>
			</g>
			<g class="st5">
				<path class="st0" d="M356.2,6.6c0.3,0.3,0.5,0.8,0.5,1.3c0,1.7-1.4,2.5-4.2,2.5c-1.4,0-2.5-0.2-3.3-0.7S348,8.5,348,7.5h0.7
					c0,0.8,0.3,1.4,1,1.8c0.7,0.4,1.6,0.5,2.8,0.5c1.1,0,1.9-0.1,2.5-0.4c0.6-0.3,0.8-0.8,0.8-1.4c0-0.5-0.2-0.9-0.5-1.1
					s-0.8-0.4-1.4-0.5c-0.6-0.1-1.5-0.1-2.6-0.1V5.6c1.1,0,1.9,0,2.5-0.1c0.6-0.1,1.1-0.3,1.4-0.5s0.5-0.6,0.5-1.1
					c0-0.6-0.3-1-0.8-1.3c-0.5-0.3-1.4-0.4-2.5-0.4c-1.3,0-2.3,0.2-2.9,0.6c-0.6,0.4-0.9,1-0.9,1.8H348c0-1,0.4-1.7,1.1-2.2
					c0.8-0.5,1.8-0.7,3.3-0.7c1.4,0,2.4,0.2,3.1,0.6c0.7,0.4,1,1,1,1.7c0,0.5-0.1,1-0.4,1.3c-0.3,0.3-0.7,0.6-1.3,0.7
					C355.5,6.1,355.9,6.3,356.2,6.6z"/>
				<path class="st0" d="M366.5,5c0.7,0.5,1.1,1.3,1.1,2.3c0,1-0.4,1.8-1.1,2.3c-0.8,0.5-1.8,0.8-3.2,0.8c-1.6,0-2.7-0.3-3.4-1
					c-0.7-0.7-1.1-1.7-1.1-3v0v0c0-1.8,0.4-3,1.2-3.7c0.8-0.7,1.9-1.1,3.2-1.1c0.7,0,1.4,0,2,0.1s1.2,0.2,1.9,0.3v0.6l-0.4-0.1
					c-0.7-0.1-1.2-0.2-1.7-0.3c-0.5-0.1-1-0.1-1.5-0.1c-0.9,0-1.6,0.1-2.2,0.4s-1,0.7-1.3,1.2s-0.4,1.3-0.4,2.3
					c0.3-0.5,0.8-0.9,1.5-1.3c0.7-0.4,1.5-0.5,2.6-0.5C364.8,4.3,365.8,4.5,366.5,5z M365.9,9.2c0.6-0.4,0.9-1,0.9-1.8
					c0-0.8-0.3-1.4-0.9-1.8c-0.6-0.4-1.5-0.6-2.7-0.6c-0.8,0-1.4,0.1-2,0.3s-1,0.5-1.3,0.9c-0.3,0.4-0.5,0.8-0.5,1.3
					c0,0.5,0.1,0.9,0.4,1.2c0.3,0.4,0.7,0.7,1.2,0.9c0.5,0.2,1.2,0.3,2,0.3C364.4,9.8,365.3,9.6,365.9,9.2z"/>
				<path class="st0" d="M381.6,3.4c0.6,0.3,1.1,0.7,1.5,1.3c0.3,0.6,0.5,1.2,0.5,2c0,0.8-0.2,1.4-0.5,2c-0.3,0.6-0.8,1-1.5,1.3
					c-0.6,0.3-1.4,0.4-2.3,0.4c-1,0-1.8-0.2-2.4-0.5s-1.2-0.8-1.5-1.4v4.5h-0.7V3.2h0.7v1.7c0.3-0.6,0.8-1.1,1.5-1.4
					s1.5-0.5,2.4-0.5C380.2,3,381,3.1,381.6,3.4z M381.9,9c0.7-0.5,1-1.3,1-2.3c0-1-0.3-1.7-1-2.3s-1.6-0.8-2.7-0.8
					c-1.1,0-2,0.3-2.7,0.8s-1,1.3-1,2.3c0,0.7,0.2,1.2,0.5,1.7s0.8,0.8,1.3,1s1.2,0.4,2,0.4C380.3,9.8,381.2,9.5,381.9,9z"/>
				<path class="st0" d="M385.5,10.2h-1.1l4-3.5l-4-3.5h1.1l3.4,3l3.4-3h1.1l-4,3.5l4,3.5h-1.1l-3.4-3L385.5,10.2z"/>
			</g>
			<g class="st5">
				<path class="st0" d="M419.1,95.8v7.8h3.3v0.6h-7.2v-0.6h3.3l0-7l-3,1.3l-0.3-0.6l3.2-1.4H419.1z"/>
				<path class="st0" d="M432.1,100.6c0.3,0.3,0.5,0.8,0.5,1.3c0,1.7-1.4,2.5-4.2,2.5c-1.4,0-2.5-0.2-3.3-0.7s-1.2-1.2-1.2-2.2h0.7
					c0,0.8,0.3,1.4,1,1.8c0.7,0.4,1.6,0.5,2.8,0.5c1.1,0,1.9-0.1,2.5-0.4c0.6-0.3,0.8-0.8,0.8-1.4c0-0.5-0.2-0.9-0.5-1.1
					s-0.8-0.4-1.4-0.5c-0.6-0.1-1.5-0.1-2.6-0.1v-0.6c1.1,0,1.9,0,2.5-0.1c0.6-0.1,1.1-0.3,1.4-0.5s0.5-0.6,0.5-1.1
					c0-0.6-0.3-1-0.8-1.3c-0.5-0.3-1.4-0.4-2.5-0.4c-1.3,0-2.3,0.2-2.9,0.6c-0.6,0.4-0.9,1-0.9,1.8h-0.7c0-1,0.4-1.7,1.1-2.2
					c0.8-0.5,1.8-0.7,3.3-0.7c1.4,0,2.4,0.2,3.1,0.6c0.7,0.4,1,1,1,1.7c0,0.5-0.1,1-0.4,1.3c-0.3,0.3-0.7,0.6-1.3,0.7
					C431.3,100.1,431.8,100.3,432.1,100.6z"/>
				<path class="st0" d="M441.4,98.6c0.6,0.2,1,0.6,1.3,1s0.5,0.9,0.5,1.5c0,0.7-0.2,1.3-0.5,1.8c-0.3,0.5-0.9,0.9-1.5,1.1
					s-1.4,0.4-2.3,0.4c-1.3,0-2.4-0.2-3.1-0.7s-1.2-1.2-1.3-2.1h0.7c0.1,0.7,0.5,1.2,1.1,1.6c0.6,0.4,1.5,0.5,2.7,0.5
					c0.8,0,1.4-0.1,2-0.3c0.5-0.2,0.9-0.5,1.2-0.9c0.3-0.4,0.4-0.8,0.4-1.3c0-0.7-0.3-1.3-0.8-1.7c-0.6-0.4-1.3-0.6-2.3-0.6
					c-0.6,0-1.2,0.1-1.8,0.3c-0.6,0.2-1.3,0.5-2.1,0.9l-0.7-0.2l1-4h7v0.6h-6.5l-0.7,2.9c0.6-0.4,1.3-0.6,1.9-0.8s1.3-0.3,2-0.3
					C440.3,98.3,440.9,98.4,441.4,98.6z"/>
				<path class="st0" d="M457.1,97.4c0.6,0.3,1.1,0.7,1.5,1.3c0.3,0.6,0.5,1.2,0.5,2c0,0.8-0.2,1.4-0.5,2c-0.3,0.6-0.8,1-1.5,1.3
					s-1.4,0.4-2.3,0.4c-1,0-1.8-0.2-2.4-0.5s-1.2-0.8-1.5-1.4v4.5h-0.7v-9.8h0.7v1.7c0.3-0.6,0.8-1.1,1.5-1.4s1.5-0.5,2.4-0.5
					C455.7,97,456.5,97.1,457.1,97.4z M457.4,103c0.7-0.5,1-1.3,1-2.3c0-1-0.3-1.7-1-2.3c-0.7-0.5-1.6-0.8-2.7-0.8
					c-1.1,0-2,0.3-2.7,0.8s-1,1.3-1,2.3c0,0.7,0.2,1.2,0.5,1.7s0.8,0.8,1.3,1s1.2,0.4,2,0.4C455.9,103.8,456.8,103.5,457.4,103z"/>
				<path class="st0" d="M461.1,104.2H460l4-3.5l-4-3.5h1.1l3.4,3l3.4-3h1.1l-4,3.5l4,3.5h-1.1l-3.4-3L461.1,104.2z"/>
			</g>
			<g class="st5">
				<path class="st0" d="M8.5,62.6h2.1v0.6H8.5v2H7.8v-2H1.2v-0.6l6.6-5.8h0.7V62.6z M7.8,57.7l-5.6,4.9h5.6V57.7z"/>
				<path class="st0" d="M20,60.5c-0.4,0.4-0.8,0.7-1.4,0.9c-0.5,0.2-1.3,0.5-2.2,0.7c-0.8,0.2-1.4,0.4-1.9,0.6
					c-0.5,0.2-0.9,0.4-1.2,0.7c-0.3,0.3-0.5,0.7-0.6,1.1h7.8v0.6H12v-0.4c0-0.6,0.2-1.2,0.6-1.6c0.4-0.4,0.9-0.7,1.5-1
					c0.6-0.2,1.3-0.5,2.2-0.7c0.8-0.2,1.4-0.4,1.9-0.6c0.5-0.2,0.9-0.4,1.2-0.7c0.3-0.3,0.5-0.7,0.5-1.2c0-1.2-1-1.8-3.1-1.8
					c-1.2,0-2.1,0.2-2.7,0.6c-0.6,0.4-0.9,1-0.9,1.8h-0.7c0-1,0.4-1.8,1.1-2.3c0.8-0.5,1.8-0.8,3.3-0.8c1.3,0,2.2,0.2,2.9,0.6
					c0.7,0.4,1,1,1,1.9C20.6,59.6,20.4,60.1,20,60.5z"/>
				<path class="st0" d="M34.5,58.4c0.6,0.3,1.1,0.7,1.5,1.3c0.3,0.6,0.5,1.2,0.5,2c0,0.8-0.2,1.4-0.5,2c-0.3,0.6-0.8,1-1.5,1.3
					c-0.6,0.3-1.4,0.4-2.3,0.4c-1,0-1.8-0.2-2.4-0.5s-1.2-0.8-1.5-1.4v4.5h-0.7v-9.8h0.7v1.7c0.3-0.6,0.8-1.1,1.5-1.4
					s1.5-0.5,2.4-0.5C33.1,58,33.9,58.1,34.5,58.4z M34.8,64c0.7-0.5,1-1.3,1-2.3c0-1-0.3-1.7-1-2.3c-0.7-0.5-1.6-0.8-2.7-0.8
					c-1.1,0-2,0.3-2.7,0.8s-1,1.3-1,2.3c0,0.7,0.2,1.2,0.5,1.7s0.8,0.8,1.3,1s1.2,0.4,2,0.4C33.2,64.8,34.1,64.5,34.8,64z"/>
				<path class="st0" d="M38.4,65.2h-1.1l4-3.5l-4-3.5h1.1l3.4,3l3.4-3h1.1l-4,3.5l4,3.5h-1.1l-3.4-3L38.4,65.2z"/>
			</g>
			<g class="st5">
				<path class="st0" d="M8.5,149.6h2.1v0.6H8.5v2H7.8v-2H1.2v-0.6l6.6-5.8h0.7V149.6z M7.8,144.7l-5.6,4.9h5.6V144.7z"/>
				<path class="st0" d="M20,147.5c-0.4,0.4-0.8,0.7-1.4,0.9c-0.5,0.2-1.3,0.5-2.2,0.7c-0.8,0.2-1.4,0.4-1.9,0.6
					c-0.5,0.2-0.9,0.4-1.2,0.7c-0.3,0.3-0.5,0.7-0.6,1.1h7.8v0.6H12v-0.4c0-0.6,0.2-1.2,0.6-1.6c0.4-0.4,0.9-0.7,1.5-1
					c0.6-0.2,1.3-0.5,2.2-0.7c0.8-0.2,1.4-0.4,1.9-0.6c0.5-0.2,0.9-0.4,1.2-0.7c0.3-0.3,0.5-0.7,0.5-1.2c0-1.2-1-1.8-3.1-1.8
					c-1.2,0-2.1,0.2-2.7,0.6c-0.6,0.4-0.9,1-0.9,1.8h-0.7c0-1,0.4-1.8,1.1-2.3c0.8-0.5,1.8-0.8,3.3-0.8c1.3,0,2.2,0.2,2.9,0.6
					c0.7,0.4,1,1,1,1.9C20.6,146.6,20.4,147.1,20,147.5z"/>
				<path class="st0" d="M34.5,145.4c0.6,0.3,1.1,0.7,1.5,1.3c0.3,0.6,0.5,1.2,0.5,2c0,0.8-0.2,1.4-0.5,2c-0.3,0.6-0.8,1-1.5,1.3
					c-0.6,0.3-1.4,0.4-2.3,0.4c-1,0-1.8-0.2-2.4-0.5s-1.2-0.8-1.5-1.4v4.5h-0.7v-9.8h0.7v1.7c0.3-0.6,0.8-1.1,1.5-1.4
					s1.5-0.5,2.4-0.5C33.1,145,33.9,145.1,34.5,145.4z M34.8,151c0.7-0.5,1-1.3,1-2.3c0-1-0.3-1.7-1-2.3c-0.7-0.5-1.6-0.8-2.7-0.8
					c-1.1,0-2,0.3-2.7,0.8s-1,1.3-1,2.3c0,0.7,0.2,1.2,0.5,1.7s0.8,0.8,1.3,1s1.2,0.4,2,0.4C33.2,151.8,34.1,151.5,34.8,151z"/>
				<path class="st0" d="M38.4,152.2h-1.1l4-3.5l-4-3.5h1.1l3.4,3l3.4-3h1.1l-4,3.5l4,3.5h-1.1l-3.4-3L38.4,152.2z"/>
			</g>
			<g class="st5">
				<path class="st0" d="M279.1,203.5c-0.4,0.4-0.8,0.7-1.4,0.9c-0.5,0.2-1.3,0.5-2.2,0.7c-0.8,0.2-1.4,0.4-1.9,0.6
					c-0.5,0.2-0.9,0.4-1.2,0.7c-0.3,0.3-0.5,0.7-0.6,1.1h7.8v0.6H271v-0.4c0-0.6,0.2-1.2,0.6-1.6s0.9-0.7,1.5-1
					c0.6-0.2,1.3-0.5,2.2-0.7c0.8-0.2,1.4-0.4,1.9-0.6c0.5-0.2,0.9-0.4,1.2-0.7c0.3-0.3,0.5-0.7,0.5-1.2c0-1.2-1-1.8-3.1-1.8
					c-1.2,0-2.1,0.2-2.7,0.6c-0.6,0.4-0.9,1-0.9,1.8h-0.7c0-1,0.4-1.8,1.1-2.3c0.8-0.5,1.8-0.8,3.3-0.8c1.3,0,2.2,0.2,2.9,0.6
					c0.7,0.4,1,1,1,1.9C279.7,202.6,279.5,203.1,279.1,203.5z"/>
				<path class="st0" d="M283.5,207.9c-0.7-0.4-1.2-0.9-1.6-1.6s-0.5-1.5-0.5-2.3c0-0.9,0.2-1.7,0.5-2.3s0.9-1.2,1.6-1.5
					s1.5-0.5,2.4-0.5c0.9,0,1.7,0.2,2.4,0.5s1.2,0.9,1.6,1.5c0.4,0.7,0.6,1.4,0.6,2.3s-0.2,1.7-0.6,2.3c-0.4,0.7-0.9,1.2-1.6,1.6
					c-0.7,0.4-1.5,0.6-2.4,0.6C285,208.4,284.2,208.3,283.5,207.9z M288,207.3c0.6-0.3,1-0.8,1.3-1.3c0.3-0.6,0.5-1.3,0.5-2
					s-0.2-1.4-0.5-2c-0.3-0.6-0.8-1-1.3-1.3s-1.3-0.5-2-0.5c-0.8,0-1.4,0.2-2,0.5c-0.6,0.3-1,0.7-1.3,1.3c-0.3,0.6-0.5,1.2-0.5,2
					c0,0.8,0.2,1.5,0.5,2s0.8,1,1.3,1.3c0.6,0.3,1.2,0.5,2,0.5C286.7,207.8,287.4,207.7,288,207.3z"/>
				<path class="st0" d="M300.4,203c0.7,0.5,1.1,1.3,1.1,2.3c0,1-0.4,1.8-1.1,2.3c-0.8,0.5-1.8,0.8-3.2,0.8c-1.6,0-2.7-0.3-3.4-1
					c-0.7-0.7-1.1-1.7-1.1-3v0v0c0-1.8,0.4-3,1.2-3.7c0.8-0.7,1.9-1.1,3.2-1.1c0.7,0,1.4,0,2,0.1c0.6,0.1,1.2,0.2,1.9,0.3v0.6
					l-0.4-0.1c-0.7-0.1-1.2-0.2-1.7-0.3c-0.5-0.1-1-0.1-1.5-0.1c-0.9,0-1.6,0.1-2.2,0.4c-0.6,0.3-1,0.7-1.3,1.2
					c-0.3,0.6-0.4,1.3-0.4,2.3c0.3-0.5,0.8-0.9,1.5-1.3c0.7-0.4,1.5-0.5,2.6-0.5C298.7,202.3,299.7,202.5,300.4,203z M299.9,207.2
					c0.6-0.4,0.9-1,0.9-1.8c0-0.8-0.3-1.4-0.9-1.8c-0.6-0.4-1.5-0.6-2.7-0.6c-0.8,0-1.4,0.1-2,0.3c-0.6,0.2-1,0.5-1.3,0.9
					s-0.5,0.8-0.5,1.3c0,0.5,0.1,0.9,0.4,1.2c0.3,0.4,0.7,0.7,1.2,0.9c0.5,0.2,1.2,0.3,2,0.3C298.3,207.8,299.3,207.6,299.9,207.2z"
					/>
				<path class="st0" d="M315.6,201.4c0.6,0.3,1.1,0.7,1.5,1.3c0.3,0.6,0.5,1.2,0.5,2c0,0.8-0.2,1.4-0.5,2c-0.3,0.6-0.8,1-1.5,1.3
					s-1.4,0.4-2.3,0.4c-1,0-1.8-0.2-2.4-0.5s-1.2-0.8-1.5-1.4v4.5h-0.7v-9.8h0.7v1.7c0.3-0.6,0.8-1.1,1.5-1.4s1.5-0.5,2.4-0.5
					C314.2,201,314.9,201.1,315.6,201.4z M315.8,207c0.7-0.5,1-1.3,1-2.3c0-1-0.3-1.7-1-2.3c-0.7-0.5-1.6-0.8-2.7-0.8
					c-1.1,0-2,0.3-2.7,0.8s-1,1.3-1,2.3c0,0.7,0.2,1.2,0.5,1.7s0.8,0.8,1.3,1s1.2,0.4,2,0.4C314.3,207.8,315.2,207.5,315.8,207z"/>
				<path class="st0" d="M319.5,208.2h-1.1l4-3.5l-4-3.5h1.1l3.4,3l3.4-3h1.1l-4,3.5l4,3.5h-1.1l-3.4-3L319.5,208.2z"/>
			</g>
			<g class="st5">
				<path class="st0" d="M330.2,136.6c0.3,0.3,0.5,0.8,0.5,1.3c0,1.7-1.4,2.5-4.2,2.5c-1.4,0-2.5-0.2-3.3-0.7s-1.2-1.2-1.2-2.2h0.7
					c0,0.8,0.3,1.4,1,1.8c0.7,0.4,1.6,0.5,2.8,0.5c1.1,0,1.9-0.1,2.5-0.4c0.6-0.3,0.8-0.8,0.8-1.4c0-0.5-0.2-0.9-0.5-1.1
					s-0.8-0.4-1.4-0.5c-0.6-0.1-1.5-0.1-2.6-0.1v-0.6c1.1,0,1.9,0,2.5-0.1c0.6-0.1,1.1-0.3,1.4-0.5s0.5-0.6,0.5-1.1
					c0-0.6-0.3-1-0.8-1.3c-0.5-0.3-1.4-0.4-2.5-0.4c-1.3,0-2.3,0.2-2.9,0.6c-0.6,0.4-0.9,1-0.9,1.8H322c0-1,0.4-1.7,1.1-2.2
					c0.8-0.5,1.8-0.7,3.3-0.7c1.4,0,2.4,0.2,3.1,0.6c0.7,0.4,1,1,1,1.7c0,0.5-0.1,1-0.4,1.3c-0.3,0.3-0.7,0.6-1.3,0.7
					C329.5,136.1,329.9,136.3,330.2,136.6z"/>
				<path class="st0" d="M340.5,135.5c-0.4,0.4-0.8,0.7-1.4,0.9c-0.5,0.2-1.3,0.5-2.2,0.7c-0.8,0.2-1.4,0.4-1.9,0.6
					c-0.5,0.2-0.9,0.4-1.2,0.7c-0.3,0.3-0.5,0.7-0.6,1.1h7.8v0.6h-8.6v-0.4c0-0.6,0.2-1.2,0.6-1.6s0.9-0.7,1.5-1
					c0.6-0.2,1.3-0.5,2.2-0.7c0.8-0.2,1.4-0.4,1.9-0.6c0.5-0.2,0.9-0.4,1.2-0.7c0.3-0.3,0.5-0.7,0.5-1.2c0-1.2-1-1.8-3.1-1.8
					c-1.2,0-2.1,0.2-2.7,0.6c-0.6,0.4-0.9,1-0.9,1.8h-0.7c0-1,0.4-1.8,1.1-2.3c0.8-0.5,1.8-0.8,3.3-0.8c1.3,0,2.2,0.2,2.9,0.6
					c0.7,0.4,1,1,1,1.9C341.1,134.6,340.9,135.1,340.5,135.5z"/>
				<path class="st0" d="M344,136c-0.4-0.5-0.7-1.1-0.7-1.8c0-0.7,0.2-1.3,0.7-1.8c0.4-0.5,1.2-0.8,2.2-0.8s1.7,0.3,2.2,0.8
					c0.4,0.5,0.7,1.1,0.7,1.8c0,0.7-0.2,1.3-0.7,1.8c-0.4,0.5-1.2,0.8-2.2,0.8S344.4,136.5,344,136z M347.7,135.6
					c0.4-0.3,0.6-0.8,0.6-1.5s-0.2-1.1-0.6-1.4c-0.4-0.3-0.9-0.5-1.6-0.5s-1.2,0.2-1.6,0.5c-0.4,0.3-0.6,0.8-0.6,1.4
					s0.2,1.1,0.6,1.5c0.4,0.3,0.9,0.5,1.6,0.5S347.3,135.9,347.7,135.6z"/>
			</g>
			<g class="st5">
				<path class="st0" d="M281,94c0.7,0.5,1.1,1.3,1.1,2.3c0,1-0.4,1.8-1.1,2.3s-1.8,0.8-3.2,0.8c-1.6,0-2.7-0.3-3.4-1
					c-0.7-0.7-1.1-1.7-1.1-3v0v0c0-1.8,0.4-3,1.2-3.7c0.8-0.7,1.9-1.1,3.2-1.1c0.7,0,1.4,0,2,0.1s1.2,0.2,1.9,0.3v0.6l-0.4-0.1
					c-0.7-0.1-1.2-0.2-1.7-0.3c-0.5-0.1-1-0.1-1.5-0.1c-0.9,0-1.6,0.1-2.2,0.4s-1,0.7-1.3,1.2s-0.4,1.3-0.4,2.3
					c0.3-0.5,0.8-0.9,1.5-1.3c0.7-0.4,1.5-0.5,2.6-0.5C279.2,93.3,280.2,93.5,281,94z M280.4,98.2c0.6-0.4,0.9-1,0.9-1.8
					c0-0.8-0.3-1.4-0.9-1.8c-0.6-0.4-1.5-0.6-2.7-0.6c-0.8,0-1.4,0.1-2,0.3s-1,0.5-1.3,0.9c-0.3,0.4-0.5,0.8-0.5,1.3
					c0,0.5,0.1,0.9,0.4,1.2s0.7,0.7,1.2,0.9c0.5,0.2,1.2,0.3,2,0.3C278.9,98.8,279.8,98.6,280.4,98.2z"/>
				<path class="st0" d="M292.3,95.6c0.3,0.3,0.5,0.8,0.5,1.3c0,1.7-1.4,2.5-4.2,2.5c-1.4,0-2.5-0.2-3.3-0.7
					c-0.8-0.5-1.2-1.2-1.2-2.2h0.7c0,0.8,0.3,1.4,1,1.8c0.7,0.4,1.6,0.5,2.8,0.5c1.1,0,1.9-0.1,2.5-0.4c0.6-0.3,0.8-0.8,0.8-1.4
					c0-0.5-0.2-0.9-0.5-1.1c-0.3-0.2-0.8-0.4-1.4-0.5s-1.5-0.1-2.6-0.1v-0.6c1.1,0,1.9,0,2.5-0.1c0.6-0.1,1.1-0.3,1.4-0.5
					c0.3-0.2,0.5-0.6,0.5-1.1c0-0.6-0.3-1-0.8-1.3s-1.3-0.4-2.5-0.4c-1.3,0-2.3,0.2-2.9,0.6c-0.6,0.4-0.9,1-0.9,1.8h-0.7
					c0-1,0.4-1.7,1.1-2.2c0.8-0.5,1.8-0.7,3.3-0.7c1.4,0,2.4,0.2,3.1,0.6c0.7,0.4,1,1,1,1.7c0,0.5-0.1,1-0.4,1.3s-0.7,0.6-1.3,0.7
					C291.6,95.1,292,95.3,292.3,95.6z"/>
				<path class="st0" d="M295.7,95c-0.4-0.5-0.7-1.1-0.7-1.8c0-0.7,0.2-1.3,0.7-1.8s1.2-0.8,2.2-0.8s1.7,0.3,2.2,0.8
					s0.7,1.1,0.7,1.8c0,0.7-0.2,1.3-0.7,1.8c-0.4,0.5-1.2,0.8-2.2,0.8S296.1,95.5,295.7,95z M299.4,94.6c0.4-0.3,0.6-0.8,0.6-1.5
					s-0.2-1.1-0.6-1.4c-0.4-0.3-0.9-0.5-1.6-0.5c-0.6,0-1.2,0.2-1.6,0.5s-0.6,0.8-0.6,1.4s0.2,1.1,0.6,1.5s0.9,0.5,1.6,0.5
					C298.5,95.1,299,94.9,299.4,94.6z"/>
			</g>
		</g>
	</g>
</g>
</svg>
